<svg width="57" height="61" viewBox="0 0 57 61" fill="none" xmlns="http://www.w3.org/2000/svg">
<path fill-rule="evenodd" clip-rule="evenodd" d="M38.9404 47.5612C31.4415 35.8359 22.9621 25.2055 8.30312 22.4588C8.21065 23.0499 8.11726 23.6414 8.02386 24.2328C21.1827 27.3397 27.534 37.0728 31.8738 48.6045C34.2096 49.1953 36.5459 49.7852 38.8813 50.3755C38.9009 49.4375 38.9205 48.4989 38.9404 47.5612Z" fill="#DB7159"/>
<path fill-rule="evenodd" clip-rule="evenodd" d="M15.2285 44.2734L13.8561 43.4205C11.9163 42.2144 9.77191 41.7647 7.63154 42.116L3.19065 42.8456C1.27075 43.1608 0.0376638 44.4242 0.0159232 46.0967L0 47.3839L15.2285 44.2734Z" fill="#BCD339"/>
<path fill-rule="evenodd" clip-rule="evenodd" d="M7.62211 59.5978L6.53722 58.2524C5.30199 56.7202 4.81237 55.1247 5.06407 53.4553L5.32772 51.7009C5.37946 51.3567 5.63974 51.1103 6.0375 51.0277C6.43434 50.9447 6.8569 51.0506 7.18883 51.3151L8.4115 52.2917L7.62211 59.5978Z" fill="#859A0E"/>
<path fill-rule="evenodd" clip-rule="evenodd" d="M12.2184 53.6181L17.5893 50.0241C19.4504 48.7785 22.013 48.6621 24.4286 49.7138L25.3087 50.0974L10.4617 59.8312L10.252 59.152C9.56946 56.9348 10.2893 54.9096 12.2184 53.6181Z" fill="#94AB13"/>
<path fill-rule="evenodd" clip-rule="evenodd" d="M15.8891 58.2833L15.8744 58.2704C13.2812 56.0195 11.9593 53.3644 12.001 50.4901L12.0343 48.1484C12.0405 47.6957 12.2928 47.3386 12.7481 47.1396C13.2034 46.9405 13.7347 46.9547 14.2497 47.18L15.687 47.8088L15.8891 58.2833Z" fill="#859A0E"/>
<path fill-rule="evenodd" clip-rule="evenodd" d="M33.4389 50.0981C33.2433 31.5598 34.9559 13.5536 49.4173 2.28882e-05C49.9568 0.599014 50.497 1.19741 51.0368 1.79639C38.5275 14.6825 38.5474 30.1613 42.1523 46.2267C39.9605 48.5578 37.7687 50.8886 35.5766 53.22C34.864 52.1792 34.1512 51.1386 33.4389 50.0981Z" fill="#DB7159"/>
<path fill-rule="evenodd" clip-rule="evenodd" d="M53.8719 60.4938L53.8875 60.473C56.5971 56.7825 57.5274 52.9349 56.614 49.1956L55.8696 46.1506C55.7253 45.5612 55.289 45.1688 54.635 45.0413C53.9812 44.9131 53.2932 45.0856 52.6887 45.529L51 46.7664L53.8719 60.4938Z" fill="#BCD339"/>
<path d="M47.5 53.5569C41.5 53.5569 43.0228 53.5569 37.5 53.5569C31.9772 53.5569 33.5 53.5569 27.5 53.5569C27.5 48.034 31.9772 43.5569 37.5 43.5569C43.0228 43.5569 47.5 48.034 47.5 53.5569Z" fill="#A7BF1C"/>
</svg>
