<svg width="65" height="69" viewBox="0 0 65 69" fill="none" xmlns="http://www.w3.org/2000/svg">
<g filter="url(#filter0_d_2_689)">
<path fill-rule="evenodd" clip-rule="evenodd" d="M42.9404 47.5612C35.4415 35.8359 26.9621 25.2055 12.3031 22.4588C12.2107 23.0499 12.1173 23.6414 12.0239 24.2328C25.1827 27.3397 31.534 37.0728 35.8738 48.6045C38.2096 49.1953 40.5459 49.7852 42.8813 50.3755C42.9009 49.4375 42.9205 48.4989 42.9404 47.5612Z" fill="#64453E"/>
<path fill-rule="evenodd" clip-rule="evenodd" d="M19.2285 44.2734L17.8561 43.4205C15.9163 42.2144 13.7719 41.7647 11.6315 42.116L7.19065 42.8456C5.27075 43.1608 4.03766 44.4242 4.01592 46.0967L4 47.3839L19.2285 44.2734Z" fill="#687041"/>
<path fill-rule="evenodd" clip-rule="evenodd" d="M11.6221 59.5978L10.5372 58.2524C9.30199 56.7202 8.81237 55.1247 9.06407 53.4553L9.32772 51.7009C9.37946 51.3567 9.63974 51.1103 10.0375 51.0277C10.4343 50.9447 10.8569 51.0506 11.1888 51.3151L12.4115 52.2917L11.6221 59.5978Z" fill="#859A0E"/>
<path fill-rule="evenodd" clip-rule="evenodd" d="M16.2184 53.6181L21.5893 50.0241C23.4504 48.7785 26.013 48.6621 28.4286 49.7138L29.3087 50.0974L14.4617 59.8312L14.252 59.152C13.5695 56.9348 14.2893 54.9096 16.2184 53.6181Z" fill="#94AB13"/>
<path fill-rule="evenodd" clip-rule="evenodd" d="M19.8891 58.2833L19.8744 58.2704C17.2812 56.0195 15.9593 53.3644 16.001 50.4901L16.0343 48.1484C16.0405 47.6957 16.2928 47.3386 16.7481 47.1396C17.2034 46.9405 17.7347 46.9547 18.2497 47.18L19.687 47.8088L19.8891 58.2833Z" fill="#566211"/>
<path fill-rule="evenodd" clip-rule="evenodd" d="M37.4389 50.0981C37.2433 31.5598 38.9559 13.5536 53.4173 2.41733e-05C53.9568 0.599015 54.497 1.1974 55.0368 1.7964C42.5275 14.6825 42.5474 30.1613 46.1523 46.2267C43.9605 48.5578 41.7687 50.8886 39.5766 53.22C38.864 52.1792 38.1512 51.1386 37.4389 50.0981Z" fill="#64453E"/>
<path fill-rule="evenodd" clip-rule="evenodd" d="M57.8719 60.4938L57.8875 60.473C60.5971 56.7825 61.5274 52.9349 60.614 49.1956L59.8696 46.1506C59.7253 45.5612 59.289 45.1688 58.635 45.0413C57.9812 44.9131 57.2932 45.0856 56.6887 45.529L55 46.7664L57.8719 60.4938Z" fill="#687041"/>
<path d="M51.5 53.5569C45.5 53.5569 47.0228 53.5569 41.5 53.5569C35.9772 53.5569 37.5 53.5569 31.5 53.5569C31.5 48.034 35.9772 43.5569 41.5 43.5569C47.0228 43.5569 51.5 48.034 51.5 53.5569Z" fill="#6D7637"/>
</g>
<defs>
<filter id="filter0_d_2_689" x="0" y="0" width="64.9543" height="68.4938" filterUnits="userSpaceOnUse" color-interpolation-filters="sRGB">
<feFlood flood-opacity="0" result="BackgroundImageFix"/>
<feColorMatrix in="SourceAlpha" type="matrix" values="0 0 0 0 0 0 0 0 0 0 0 0 0 0 0 0 0 0 127 0" result="hardAlpha"/>
<feOffset dy="4"/>
<feGaussianBlur stdDeviation="2"/>
<feComposite in2="hardAlpha" operator="out"/>
<feColorMatrix type="matrix" values="0 0 0 0 0 0 0 0 0 0 0 0 0 0 0 0 0 0 0.25 0"/>
<feBlend mode="normal" in2="BackgroundImageFix" result="effect1_dropShadow_2_689"/>
<feBlend mode="normal" in="SourceGraphic" in2="effect1_dropShadow_2_689" result="shape"/>
</filter>
</defs>
</svg>
