<svg width="215" height="64" viewBox="0 0 215 64" fill="none" xmlns="http://www.w3.org/2000/svg">
<g filter="url(#filter0_d_23_3)">
<path d="M54.6645 17.5C55.3311 23.1 54.8978 27.9333 53.3645 32C51.8978 36.0667 49.7645 39.6 46.9645 42.6C44.1645 45.6 41.0645 48.3667 37.6645 50.9C37.3978 51.0333 37.0978 51.2 36.7645 51.4C36.4311 51.5333 36.0645 51.6333 35.6645 51.7C32.3978 52.5667 29.4978 53.2333 26.9645 53.7C24.4978 54.1667 21.7978 54.2667 18.8645 54C17.8645 54 17.0311 53.7667 16.3645 53.3C15.0311 52.4333 13.6978 51.7 12.3645 51.1C11.0978 50.5 9.93112 49.5 8.86445 48.1C7.39779 46.2333 6.39779 44.3333 5.86445 42.4C5.39779 40.4667 4.83112 38.3667 4.16445 36.1C4.09779 35.7667 4.06445 35.4667 4.06445 35.2C4.06445 34.9333 4.06445 34.6667 4.06445 34.4C4.13112 33.2667 4.16445 32.2 4.16445 31.2C4.16445 30.1333 4.29779 28.8667 4.56445 27.4C4.83112 25.9333 5.39779 24.1333 6.26445 22C7.13112 19.8667 7.99779 18.0333 8.86445 16.5C9.86445 14.6333 11.1311 12.6333 12.6645 10.5C14.1978 8.3 15.8978 6.36666 17.7645 4.7C19.6311 3.03333 21.5978 1.96666 23.6645 1.5C25.7311 1.03333 27.7978 1.56667 29.8645 3.1C30.5978 3.63333 30.9645 4.4 30.9645 5.4C30.9645 6.2 30.6978 6.93333 30.1645 7.6C30.0978 7.66667 30.0311 7.76666 29.9645 7.9C29.9645 7.96666 29.9311 8.03333 29.8645 8.1C29.5311 8.63333 29.0311 9.16666 28.3645 9.7C24.9645 12.1667 22.0311 15.3667 19.5645 19.3C17.0978 23.1667 15.3645 27.3 14.3645 31.7C14.0978 32.8333 13.8978 34.2667 13.7645 36C13.6311 37.6667 13.6978 39.4667 13.9645 41.4C14.0311 41.8 14.0978 42.1667 14.1645 42.5C14.2311 42.8333 14.3645 43.1667 14.5645 43.5C15.1645 44.8333 16.1645 45.5667 17.5645 45.7C18.8311 45.9 20.0645 46 21.2645 46C22.4645 45.9333 23.7645 45.7667 25.1645 45.5C25.6311 45.3667 26.0645 45.1333 26.4645 44.8C26.9311 44.4667 27.3978 44.2 27.8645 44C28.1978 43.8667 28.5311 43.8667 28.8645 44C29.1978 44.0667 29.5311 44.0667 29.8645 44C32.1978 43.2 34.3645 41.8 36.3645 39.8C38.3645 37.8 40.0645 35.5 41.4645 32.9C42.9311 30.3 43.9978 27.6667 44.6645 25C45.3311 22.3333 45.4645 19.9 45.0645 17.7C44.7311 15.8333 44.1311 14.3333 43.2645 13.2C42.4645 12 41.4311 10.8333 40.1645 9.7C39.8311 9.43333 39.4645 9.2 39.0645 9C38.6645 8.8 38.2645 8.66666 37.8645 8.6C37.4645 8.53333 37.0645 8.3 36.6645 7.9C36.3311 7.3 36.2978 6.7 36.5645 6.1C36.8978 5.43333 37.4311 5.06666 38.1645 5C39.0978 5 39.9978 5.03333 40.8645 5.1C41.7978 5.1 42.6311 5.13333 43.3645 5.2C43.7645 5.26666 44.1645 5.36666 44.5645 5.5C44.9645 5.63333 45.3311 5.8 45.6645 6C46.1311 6.26666 46.5311 6.53333 46.8645 6.8C47.2645 7.06666 47.7645 7.3 48.3645 7.5C48.8978 7.63333 49.4311 8 49.9645 8.6C51.0978 9.6 51.9311 10.7 52.4645 11.9C53.0645 13.1 53.6978 14.5 54.3645 16.1C54.5645 16.5 54.6645 16.9667 54.6645 17.5ZM103.455 48.6C103.388 49.2667 103.122 49.8333 102.655 50.3C102.188 50.7667 101.588 50.9667 100.855 50.9C99.3884 50.7667 97.9551 50.3333 96.5551 49.6C95.2217 48.8667 94.1217 48.0667 93.2551 47.2C92.9884 46.8667 92.6551 46.7333 92.2551 46.8C91.9217 46.8667 91.6551 47.1 91.4551 47.5C91.3884 47.8333 91.0551 48.1667 90.4551 48.5C90.1884 48.7 89.9217 48.9333 89.6551 49.2C89.4551 49.4 89.2217 49.6333 88.9551 49.9C88.4884 50.4333 87.9551 50.9 87.3551 51.3C86.8217 51.7 86.3217 52.2333 85.8551 52.9C84.9884 54.1 83.8217 54.7667 82.3551 54.9C81.2217 55.1 80.0551 55.1667 78.8551 55.1C77.6551 55.0333 76.5217 54.8667 75.4551 54.6C74.5217 54.4 73.6551 53.9667 72.8551 53.3C72.7217 53.1667 72.5884 53.0333 72.4551 52.9C72.3217 52.7667 72.1551 52.6667 71.9551 52.6C71.0884 52.0667 70.3884 51.3667 69.8551 50.5C68.9884 48.9667 68.2217 47.3333 67.5551 45.6C66.8884 43.8 66.7884 41.9 67.2551 39.9C67.5884 38.3667 68.1551 36.7333 68.9551 35C69.8217 33.2 70.6217 31.7 71.3551 30.5C72.8884 28.1 74.9217 26.2333 77.4551 24.9C79.9884 23.5 82.7551 23.0667 85.7551 23.6C88.2884 24.0667 90.4884 24.9333 92.3551 26.2C94.2884 27.4667 95.9551 29.1333 97.3551 31.2C97.6884 31.6667 97.7551 32.1333 97.5551 32.6C97.4217 33.0667 97.0884 33.3667 96.5551 33.5C95.4884 33.7 94.5884 33.5 93.8551 32.9C92.1884 31.3667 90.1884 30.6 87.8551 30.6C85.5217 30.6 83.3884 31.1333 81.4551 32.2C81.1884 32.3333 80.9551 32.4667 80.7551 32.6C80.6217 32.7333 80.4884 32.9 80.3551 33.1C79.5551 33.8333 78.7217 34.7333 77.8551 35.8C77.0551 36.8667 76.3884 38.2667 75.8551 40C75.5884 40.8667 75.2551 41.8333 74.8551 42.9C74.5217 43.9667 74.3884 44.9667 74.4551 45.9C74.4551 46.5667 74.7217 47.1333 75.2551 47.6C75.7884 48 76.3884 48.1667 77.0551 48.1C79.3217 47.7667 81.1884 47.0333 82.6551 45.9C84.1217 44.7 85.4551 43.4 86.6551 42C87.9217 40.6 89.2884 39.3333 90.7551 38.2C91.3551 37.8 92.0217 37.6333 92.7551 37.7C93.4884 37.7667 94.0884 38.0667 94.5551 38.6C95.2217 39.1333 95.7217 39.9 96.0551 40.9C96.3884 41.9 96.6884 42.9333 96.9551 44C97.1551 44.6667 97.5217 45.2333 98.0551 45.7C98.6551 46.1 99.3217 46.2667 100.055 46.2H101.055C101.788 46.1333 102.388 46.3333 102.855 46.8C103.322 47.2667 103.522 47.8667 103.455 48.6ZM142.99 44C143.324 45.6 142.857 46.8333 141.59 47.7C141.324 47.9667 141.057 48.2333 140.79 48.5C140.59 48.7 140.424 48.9333 140.29 49.2C139.957 49.8 139.524 50.3 138.99 50.7C138.524 51.0333 138.024 51.3333 137.49 51.6C135.024 52.6 132.524 53.3 129.99 53.7C127.524 54.1667 124.957 54.0333 122.29 53.3C121.624 53.1 120.757 52.6333 119.69 51.9C118.624 51.1667 117.757 50.4 117.09 49.6C116.957 49.3333 116.724 49 116.39 48.6C116.124 48.1333 115.857 47.6667 115.59 47.2C115.457 46.6667 115.557 46.1667 115.89 45.7C116.224 45.2333 116.724 45.0667 117.39 45.2C118.324 45.4 119.157 45.6667 119.89 46C120.624 46.3333 121.324 46.6667 121.99 47C122.79 47.4 123.59 47.6 124.39 47.6C126.39 47.6667 128.324 47.4333 130.19 46.9C132.124 46.3 133.557 45.3333 134.49 44C134.89 43.4667 134.957 42.9 134.69 42.3C134.424 41.7 134.024 41.3333 133.49 41.2C131.824 40.8667 130.124 40.6667 128.39 40.6C126.724 40.4667 124.924 39.9333 122.99 39C121.457 38.1333 120.557 37.0333 120.29 35.7C120.224 35.5667 120.157 35.4 120.09 35.2C120.024 34.9333 119.924 34.7 119.79 34.5C119.524 33.9667 119.357 33.3667 119.29 32.7C119.224 32.0333 119.29 31.3667 119.49 30.7C119.824 29.5667 120.29 28.5333 120.89 27.6C121.557 26.6667 122.224 25.7 122.89 24.7C123.624 23.7 124.524 23 125.59 22.6C126.924 22.0667 128.29 21.8333 129.69 21.9C131.157 21.9667 132.457 22 133.59 22C134.324 22 135.057 22.1333 135.79 22.4C136.724 22.7333 137.657 23.0667 138.59 23.4C139.524 23.7333 140.357 24.2667 141.09 25C141.557 25.4667 141.857 26.2 141.99 27.2C142.19 28.2 142.124 29.0333 141.79 29.7C141.524 30.3667 140.857 30.5 139.79 30.1C139.057 29.7667 138.424 29.4 137.89 29C137.424 28.5333 136.757 28.2333 135.89 28.1C135.224 28.0333 134.224 27.9667 132.89 27.9C131.624 27.7667 130.69 27.7667 130.09 27.9C128.957 28.1 127.957 28.6667 127.09 29.6C127.024 29.7333 126.957 30.1667 126.89 30.9C126.89 31.5667 126.924 32.2333 126.99 32.9C127.057 33.5667 127.157 33.9333 127.29 34C127.89 34.3333 128.89 34.5333 130.29 34.6C131.757 34.6 133.024 34.5333 134.09 34.4C134.357 34.4 134.59 34.5 134.79 34.7C134.857 34.9667 135.09 35.1 135.49 35.1C137.024 35.3 138.224 35.8667 139.09 36.8C139.957 37.6667 140.79 38.5667 141.59 39.5C142.324 40.3667 142.757 41.4 142.89 42.6C142.89 42.8667 142.89 43.1 142.89 43.3C142.957 43.5 142.99 43.7333 142.99 44ZM170.239 20.5C170.239 20.5667 170.239 20.7 170.239 20.9C170.239 21.1 170.205 21.2667 170.139 21.4C170.072 21.5333 169.939 21.7 169.739 21.9C169.605 22.0333 169.439 22.1333 169.239 22.2C167.372 23.1333 165.472 23.4 163.539 23C162.539 22.9333 161.672 22.5667 160.939 21.9C160.539 21.6333 160.139 21.4 159.739 21.2C159.405 21 159.039 20.7667 158.639 20.5C158.039 20.0333 157.672 19.4333 157.539 18.7C157.405 17.9667 157.572 17.2667 158.039 16.6C158.572 15.8667 159.205 15.3333 159.939 15C160.739 14.6 161.572 14.3333 162.439 14.2C163.772 14.0667 164.972 14.3333 166.039 15C166.239 15.0667 166.405 15.1667 166.539 15.3C166.672 15.3667 166.839 15.4333 167.039 15.5C168.305 16.0333 169.205 16.9333 169.739 18.2C170.072 18.8 170.239 19.5667 170.239 20.5ZM166.139 30C166.005 31.2667 165.839 32.9 165.639 34.9C165.505 36.8333 165.339 38.8667 165.139 41C165.005 43.1333 164.772 45.1667 164.439 47.1C164.172 48.9667 163.839 50.5 163.439 51.7C162.839 53.3 161.772 53.9333 160.239 53.6C159.839 53.5333 159.439 53.5 159.039 53.5C158.705 53.5 158.372 53.4667 158.039 53.4C156.505 52.9333 155.672 51.9667 155.539 50.5C155.405 49.7667 155.272 49.0667 155.139 48.4C155.072 47.6667 155.072 47.0333 155.139 46.5C155.272 45.9 155.472 44.7667 155.739 43.1C156.072 41.4333 156.439 39.6 156.839 37.6C157.239 35.6 157.605 33.8 157.939 32.2C158.272 30.5333 158.472 29.4333 158.539 28.9V28.6C158.539 27.8667 158.772 27.2667 159.239 26.8C159.705 26.3333 160.272 26.0667 160.939 26C161.605 26 162.205 26.0333 162.739 26.1C163.339 26.1 163.839 26.2333 164.239 26.5C165.839 27.1667 166.472 28.3333 166.139 30ZM209.787 44C210.12 45.6 209.654 46.8333 208.387 47.7C208.12 47.9667 207.854 48.2333 207.587 48.5C207.387 48.7 207.22 48.9333 207.087 49.2C206.754 49.8 206.32 50.3 205.787 50.7C205.32 51.0333 204.82 51.3333 204.287 51.6C201.82 52.6 199.32 53.3 196.787 53.7C194.32 54.1667 191.754 54.0333 189.087 53.3C188.42 53.1 187.554 52.6333 186.487 51.9C185.42 51.1667 184.554 50.4 183.887 49.6C183.754 49.3333 183.52 49 183.187 48.6C182.92 48.1333 182.654 47.6667 182.387 47.2C182.254 46.6667 182.354 46.1667 182.687 45.7C183.02 45.2333 183.52 45.0667 184.187 45.2C185.12 45.4 185.954 45.6667 186.687 46C187.42 46.3333 188.12 46.6667 188.787 47C189.587 47.4 190.387 47.6 191.187 47.6C193.187 47.6667 195.12 47.4333 196.987 46.9C198.92 46.3 200.354 45.3333 201.287 44C201.687 43.4667 201.754 42.9 201.487 42.3C201.22 41.7 200.82 41.3333 200.287 41.2C198.62 40.8667 196.92 40.6667 195.187 40.6C193.52 40.4667 191.72 39.9333 189.787 39C188.254 38.1333 187.354 37.0333 187.087 35.7C187.02 35.5667 186.954 35.4 186.887 35.2C186.82 34.9333 186.72 34.7 186.587 34.5C186.32 33.9667 186.154 33.3667 186.087 32.7C186.02 32.0333 186.087 31.3667 186.287 30.7C186.62 29.5667 187.087 28.5333 187.687 27.6C188.354 26.6667 189.02 25.7 189.687 24.7C190.42 23.7 191.32 23 192.387 22.6C193.72 22.0667 195.087 21.8333 196.487 21.9C197.954 21.9667 199.254 22 200.387 22C201.12 22 201.854 22.1333 202.587 22.4C203.52 22.7333 204.454 23.0667 205.387 23.4C206.32 23.7333 207.154 24.2667 207.887 25C208.354 25.4667 208.654 26.2 208.787 27.2C208.987 28.2 208.92 29.0333 208.587 29.7C208.32 30.3667 207.654 30.5 206.587 30.1C205.854 29.7667 205.22 29.4 204.687 29C204.22 28.5333 203.554 28.2333 202.687 28.1C202.02 28.0333 201.02 27.9667 199.687 27.9C198.42 27.7667 197.487 27.7667 196.887 27.9C195.754 28.1 194.754 28.6667 193.887 29.6C193.82 29.7333 193.754 30.1667 193.687 30.9C193.687 31.5667 193.72 32.2333 193.787 32.9C193.854 33.5667 193.954 33.9333 194.087 34C194.687 34.3333 195.687 34.5333 197.087 34.6C198.554 34.6 199.82 34.5333 200.887 34.4C201.154 34.4 201.387 34.5 201.587 34.7C201.654 34.9667 201.887 35.1 202.287 35.1C203.82 35.3 205.02 35.8667 205.887 36.8C206.754 37.6667 207.587 38.5667 208.387 39.5C209.12 40.3667 209.554 41.4 209.687 42.6C209.687 42.8667 209.687 43.1 209.687 43.3C209.754 43.5 209.787 43.7333 209.787 44Z" fill="#EEEEE2"/>
</g>
<defs>
<filter id="filter0_d_23_3" x="0.0644531" y="0.799988" width="214.223" height="62.4" filterUnits="userSpaceOnUse" color-interpolation-filters="sRGB">
<feFlood flood-opacity="0" result="BackgroundImageFix"/>
<feColorMatrix in="SourceAlpha" type="matrix" values="0 0 0 0 0 0 0 0 0 0 0 0 0 0 0 0 0 0 127 0" result="hardAlpha"/>
<feOffset dy="4"/>
<feGaussianBlur stdDeviation="2"/>
<feComposite in2="hardAlpha" operator="out"/>
<feColorMatrix type="matrix" values="0 0 0 0 0 0 0 0 0 0 0 0 0 0 0 0 0 0 0.25 0"/>
<feBlend mode="normal" in2="BackgroundImageFix" result="effect1_dropShadow_23_3"/>
<feBlend mode="normal" in="SourceGraphic" in2="effect1_dropShadow_23_3" result="shape"/>
</filter>
</defs>
</svg>
