<svg width="1819" height="2430" viewBox="0 0 1819 2430" fill="none" xmlns="http://www.w3.org/2000/svg">
<path d="M0.0478516 2411.31H1818.46V0H0.0478516V2411.31Z" fill="#A8D5E2"/>
<path d="M0.0478516 591.189H1818.46V2411.32H0.0478516V591.189Z" fill="#A8D5E2"/>
<path fill-rule="evenodd" clip-rule="evenodd" d="M1818.41 1530.29V2413.35H674.578V1652.95C895.277 1586.97 1098.43 1493.68 1289.14 1381.05C1355.78 1341.7 1385.1 1345.69 1453.73 1383.62C1567.96 1446.75 1689.6 1494.48 1818.41 1530.29Z" fill="#F7D38F"/>
<path fill-rule="evenodd" clip-rule="evenodd" d="M1818.41 2413.35H0V1618.7C219.584 1552.72 421.706 1459.43 611.457 1346.81C677.76 1307.45 775.045 1303.3 848.838 1336.67C1142.3 1469.39 1458.99 1579.66 1818.41 1648.67V2413.35Z" fill="#F0C678"/>
<path fill-rule="evenodd" clip-rule="evenodd" d="M1253.23 1833.69C1266.74 1833.69 1278.03 1843.03 1280.8 1855.49C1286.83 1851.88 1293.92 1849.79 1301.49 1849.79C1314.8 1849.79 1326.59 1856.21 1333.81 1866.08C1342.15 1858.71 1353.19 1854.23 1365.29 1854.23C1375.57 1854.23 1385.08 1857.47 1392.83 1862.97C1399.53 1856.86 1408.5 1853.12 1418.35 1853.12C1439.08 1853.12 1455.89 1869.65 1455.89 1890.04C1455.89 1910.43 1439.08 1926.96 1418.35 1926.96C1413.84 1926.96 1409.52 1926.17 1405.52 1924.74C1397.24 1938.06 1382.32 1946.94 1365.29 1946.94C1346.98 1946.94 1331.1 1936.67 1323.3 1921.67C1317.03 1925.71 1309.54 1928.06 1301.49 1928.06C1279.51 1928.06 1261.7 1910.54 1261.7 1888.93C1261.7 1888.59 1261.7 1888.26 1261.71 1887.93C1259.04 1888.76 1256.18 1889.2 1253.23 1889.2C1237.64 1889.2 1225 1876.78 1225 1861.45C1225 1846.12 1237.64 1833.69 1253.23 1833.69Z" fill="#94AB13"/>
<path fill-rule="evenodd" clip-rule="evenodd" d="M0 2206.45V1613.72C224.522 1547.72 431.19 1454.41 625.208 1341.76C656.339 1323.68 694.157 1313.03 733.255 1310.04C666.851 1355.26 855.484 1340.87 819.48 1395.77C783.474 1450.67 542.34 1421.49 583.815 1537.91C625.292 1654.33 1025.79 1587.9 998.492 1760.02C981.828 1865.11 695.659 1997.49 624.829 2058.91C582.902 2095.26 560.327 2159.21 522.638 2190.9C348.424 2196.08 174.212 2201.26 0 2206.45Z" fill="#FFDB99"/>
<path fill-rule="evenodd" clip-rule="evenodd" d="M611.086 2063.8L923.01 1900.77C1008.18 1856.26 1095.65 1845.31 1189.13 1867.46C1285.58 1890.31 1377.86 1893.31 1479.81 1877.48L1818.41 1824.93V2413.35H0V2064.75L611.086 2063.8Z" fill="#FFDB99"/>
<path fill-rule="evenodd" clip-rule="evenodd" d="M1818.41 2277.18L1647.45 2218.68C1388.87 2130.19 1142.96 2124.26 880.427 2200.18L771.666 2231.63C512.166 2306.67 270.866 2306.35 11.5682 2230.61L0 2227.23V2429.28H1818.41V2277.18Z" fill="#F0C678"/>
<path fill-rule="evenodd" clip-rule="evenodd" d="M1569.2 1990.21C1540.62 1877.24 1540.35 1780.13 1652 1745.74C1655.01 1749.44 1658.02 1753.14 1661.03 1756.85C1568.15 1796.46 1575.35 1880.43 1616.54 1979.3C1604.76 1989.13 1592.98 1998.96 1581.2 2008.79C1577.2 2002.59 1573.2 1996.4 1569.2 1990.21Z" fill="#B8834E"/>
<path fill-rule="evenodd" clip-rule="evenodd" d="M1649.74 1753.51L1654.56 1744.37C1661.39 1731.44 1672.59 1723.03 1687.07 1719.97L1717.13 1713.6C1730.11 1710.85 1742.84 1716.14 1749.89 1727.22L1755.3 1735.75L1649.74 1753.51Z" fill="#94AB13"/>
<path fill-rule="evenodd" clip-rule="evenodd" d="M1649.74 1753.51L1791.23 1826.57L1791.53 1810.22C1791.82 1794.8 1782.93 1781.47 1768.43 1775.59L1696.7 1746.48C1683.07 1740.96 1668.9 1742.04 1656.31 1749.58L1649.74 1753.51Z" fill="#859A0E"/>
<path fill-rule="evenodd" clip-rule="evenodd" d="M1649.74 1753.51L1650.78 1741.82C1651.97 1728.5 1648.36 1716.65 1639.93 1706.17L1631.07 1695.16C1629.34 1693 1626.73 1692.01 1623.97 1692.47C1621.21 1692.92 1619.08 1694.69 1618.15 1697.29L1614.74 1706.88L1649.74 1753.51Z" fill="#BCD339"/>
<path fill-rule="evenodd" clip-rule="evenodd" d="M1615.93 1715.06L1568.38 1704.71C1551.9 1701.12 1535.82 1706.82 1525.46 1719.92L1521.68 1724.69L1652.3 1751.98L1650.77 1746.93C1645.76 1730.44 1633.01 1718.78 1615.93 1715.06Z" fill="#94AB13"/>
<path fill-rule="evenodd" clip-rule="evenodd" d="M1692.45 1824.12L1692.49 1824C1698.97 1802.47 1696.05 1781.46 1683.92 1762.43L1674.04 1746.93C1672.13 1743.93 1669.12 1742.19 1665.52 1742.02C1661.93 1741.84 1658.75 1743.28 1656.55 1746.08L1650.39 1753.89L1692.45 1824.12Z" fill="#BCD339"/>
<path fill-rule="evenodd" clip-rule="evenodd" d="M1536.78 1979.28C1538.69 1899.63 1523.2 1831.16 1438.93 1806.91C1437.4 1809.52 1435.88 1812.13 1434.36 1814.74C1506.24 1842.67 1514.72 1901.88 1501.65 1971.59C1511.54 1978.52 1521.44 1985.45 1531.33 1992.38C1533.15 1988.01 1534.96 1983.64 1536.78 1979.28Z" fill="#B8834E"/>
<path fill-rule="evenodd" clip-rule="evenodd" d="M1441.78 1812.39L1436.9 1805.95C1430 1796.83 1420.74 1790.9 1410.04 1788.74L1387.82 1784.25C1378.22 1782.31 1370.1 1786.04 1366.92 1793.86L1364.48 1799.87L1441.78 1812.39Z" fill="#BCD339"/>
<path fill-rule="evenodd" clip-rule="evenodd" d="M1441.78 1812.39L1353.82 1863.9L1350.96 1852.37C1348.27 1841.5 1352.38 1832.11 1361.66 1827.96L1407.53 1807.44C1416.25 1803.54 1426.42 1804.31 1436.51 1809.62L1441.78 1812.39Z" fill="#94AB13"/>
<path fill-rule="evenodd" clip-rule="evenodd" d="M1441.78 1812.39L1439.15 1804.15C1436.17 1794.76 1436.79 1786.4 1441.05 1779.01L1445.51 1771.25C1446.39 1769.72 1448.07 1769.03 1450.09 1769.35C1452.11 1769.67 1453.9 1770.92 1454.97 1772.75L1458.92 1779.52L1441.78 1812.39Z" fill="#859A0E"/>
<path fill-rule="evenodd" clip-rule="evenodd" d="M1459.41 1785.28L1491.26 1777.98C1502.3 1775.45 1514.56 1779.47 1523.98 1788.71L1527.42 1792.08L1439.72 1811.31L1439.99 1807.75C1440.86 1796.13 1447.96 1787.91 1459.41 1785.28Z" fill="#94AB13"/>
<path fill-rule="evenodd" clip-rule="evenodd" d="M1423.06 1862.18L1423.02 1862.09C1414.97 1846.91 1413.64 1832.09 1419.12 1818.68L1423.58 1807.75C1424.44 1805.63 1426.28 1804.41 1428.79 1804.29C1431.3 1804.16 1433.77 1805.18 1435.77 1807.15L1441.37 1812.66L1423.06 1862.18Z" fill="#859A0E"/>
<path fill-rule="evenodd" clip-rule="evenodd" d="M1103.77 1923.55C1066 1864.59 1023.28 1811.13 949.443 1797.31C948.977 1800.28 948.506 1803.26 948.036 1806.23C1014.32 1821.86 1046.31 1870.81 1068.18 1928.8C1079.94 1931.77 1091.71 1934.74 1103.47 1937.7C1103.57 1932.99 1103.67 1928.27 1103.77 1923.55Z" fill="#B8834E"/>
<path fill-rule="evenodd" clip-rule="evenodd" d="M954.106 1801.42L947.193 1797.13C937.421 1791.06 926.62 1788.8 915.838 1790.57L893.468 1794.24C883.797 1795.82 877.585 1802.18 877.476 1810.59L877.396 1817.06L954.106 1801.42Z" fill="#BCD339"/>
<path fill-rule="evenodd" clip-rule="evenodd" d="M954.106 1801.42L890.861 1880.58L883.982 1870.84C877.49 1861.64 877.894 1851.42 885.032 1844.27L920.337 1808.9C927.041 1802.18 936.814 1799.3 948.178 1800.69L954.106 1801.42Z" fill="#94AB13"/>
<path fill-rule="evenodd" clip-rule="evenodd" d="M954.103 1801.42L948.638 1794.65C942.416 1786.95 939.95 1778.92 941.218 1770.53L942.546 1761.7C942.806 1759.97 944.118 1758.73 946.121 1758.32C948.12 1757.9 950.249 1758.43 951.921 1759.76L958.08 1764.68L954.103 1801.42Z" fill="#859A0E"/>
<path fill-rule="evenodd" clip-rule="evenodd" d="M960.643 1769.89L987.697 1751.81C997.072 1745.55 1009.98 1744.96 1022.15 1750.25L1026.58 1752.18L951.794 1801.13L950.737 1797.72C947.299 1786.57 950.926 1776.38 960.643 1769.89Z" fill="#94AB13"/>
<path fill-rule="evenodd" clip-rule="evenodd" d="M954.845 1854.49L954.771 1854.42C941.708 1843.1 935.049 1829.75 935.259 1815.3L935.427 1803.52C935.458 1801.24 936.729 1799.45 939.022 1798.45C941.316 1797.45 943.992 1797.52 946.586 1798.65L953.827 1801.81L954.845 1854.49Z" fill="#859A0E"/>
<path fill-rule="evenodd" clip-rule="evenodd" d="M1076.06 1936.31C1075.07 1843.08 1083.7 1752.53 1156.54 1684.37C1159.26 1687.38 1161.98 1690.39 1164.7 1693.4C1101.69 1758.21 1101.79 1836.05 1119.95 1916.84C1108.91 1928.56 1097.87 1940.29 1086.82 1952.01C1083.23 1946.78 1079.64 1941.54 1076.06 1936.31Z" fill="#B8834E"/>
<path fill-rule="evenodd" clip-rule="evenodd" d="M1155.67 1690.93L1163.4 1683.33C1174.34 1672.58 1187.75 1666.5 1202.35 1665.68L1232.64 1663.98C1245.74 1663.25 1255.75 1669.74 1258.41 1680.68L1260.46 1689.11L1155.67 1690.93Z" fill="#94AB13"/>
<path fill-rule="evenodd" clip-rule="evenodd" d="M1155.67 1690.41L1261.93 1775.38L1267.98 1760.66C1273.69 1746.79 1270.1 1733.57 1258.65 1726.31L1201.98 1690.39C1191.21 1683.56 1177.6 1682.64 1163.19 1687.74L1155.67 1690.41Z" fill="#859A0E"/>
<path fill-rule="evenodd" clip-rule="evenodd" d="M1155.67 1690.41L1160.77 1679.99C1166.58 1668.14 1167.4 1656.95 1163.23 1646.36L1158.85 1635.24C1157.99 1633.05 1155.9 1631.81 1153.17 1631.85C1150.43 1631.89 1147.81 1633.2 1146.03 1635.42L1139.46 1643.61L1155.67 1690.41Z" fill="#BCD339"/>
<path fill-rule="evenodd" clip-rule="evenodd" d="M1137.69 1651.16L1096.97 1635.42C1082.86 1629.96 1065.84 1632.94 1051.54 1643.37L1046.34 1647.16L1158.61 1689.37L1158.95 1684.6C1160.1 1669.06 1152.32 1656.81 1137.69 1651.16Z" fill="#94AB13"/>
<path fill-rule="evenodd" clip-rule="evenodd" d="M1170.61 1759.87L1170.69 1759.77C1184.34 1741.21 1189.03 1721.86 1184.42 1703.05L1180.68 1687.74C1179.95 1684.78 1177.75 1682.8 1174.46 1682.16C1171.16 1681.52 1167.7 1682.38 1164.65 1684.61L1156.15 1690.84L1170.61 1759.87Z" fill="#BCD339"/>
<path fill-rule="evenodd" clip-rule="evenodd" d="M1715.87 1925.22C1732.08 1925.22 1745.22 1938.14 1745.22 1954.09C1745.22 1970.03 1732.08 1982.96 1715.87 1982.96C1708.04 1982.96 1700.92 1979.94 1695.66 1975.02C1688.32 1990.22 1672.57 2000.72 1654.33 2000.72C1644.83 2000.72 1636.01 1997.87 1628.7 1992.99C1616.5 2004.64 1599.86 2011.82 1581.51 2011.82C1569.02 2011.82 1557.33 2008.49 1547.28 2002.7C1541.19 2012.81 1529.98 2019.59 1517.15 2019.59C1497.83 2019.59 1482.16 2004.19 1482.16 1985.17C1482.16 1967.21 1496.16 1952.46 1514.02 1950.9C1513.85 1949.02 1513.77 1947.12 1513.77 1945.21C1513.77 1908.41 1544.1 1878.59 1581.51 1878.59C1606.97 1878.59 1629.14 1892.4 1640.71 1912.82C1645.01 1911.5 1649.59 1910.79 1654.33 1910.79C1671.68 1910.79 1686.77 1920.28 1694.52 1934.28C1699.87 1928.7 1707.45 1925.22 1715.87 1925.22ZM1003.09 1912.45C1014.5 1912.45 1024.48 1918.47 1029.94 1927.45L1030.55 1927.44C1036.57 1927.44 1042.04 1929.83 1046.01 1933.69C1045.5 1931.22 1045.22 1928.67 1045.22 1926.05C1045.22 1905.36 1062.28 1888.58 1083.32 1888.58C1096.98 1888.58 1108.95 1895.64 1115.67 1906.24C1118.92 1904.88 1122.48 1904.13 1126.23 1904.13C1130.16 1904.13 1133.9 1904.96 1137.26 1906.45C1140.86 1884.06 1160.59 1866.93 1184.38 1866.93C1210.72 1866.93 1232.08 1887.93 1232.08 1913.84C1232.08 1915.1 1232.03 1916.35 1231.93 1917.59C1247.53 1919.05 1259.74 1931.97 1259.74 1947.7C1259.74 1964.41 1245.96 1977.96 1228.97 1977.96C1215.71 1977.96 1204.41 1969.71 1200.09 1958.14C1195.17 1959.83 1189.88 1960.75 1184.38 1960.75C1170.16 1960.75 1157.4 1954.64 1148.66 1944.93C1143.87 1952.12 1135.62 1956.86 1126.23 1956.86C1120.47 1956.86 1115.14 1955.08 1110.78 1952.04C1103.84 1959.12 1094.11 1963.53 1083.32 1963.53C1076.05 1963.53 1069.25 1961.52 1063.47 1958.04C1061.26 1962.02 1056.97 1964.71 1052.03 1964.71C1050.19 1964.71 1048.43 1964.33 1046.84 1963.65C1042.81 1968.01 1037 1970.74 1030.55 1970.74C1027.05 1970.74 1023.75 1969.94 1020.81 1968.51C1015.77 1971.93 1009.67 1973.93 1003.09 1973.93C985.827 1973.93 971.833 1960.17 971.833 1943.19C971.833 1926.22 985.827 1912.45 1003.09 1912.45Z" fill="#A7BF1C"/>
<path fill-rule="evenodd" clip-rule="evenodd" d="M760.707 2034.76C888.272 2005.15 1023.97 1950.47 1143.4 1945.93C1262.83 1941.39 1353.57 2012.02 1461.56 2008.11C1583.9 2003.69 1670.54 1939.27 1818.41 1974.8V2054.74C1689.08 2020.69 1573.39 2083.77 1457.12 2079.17C1340.85 2074.56 1265.07 1982.42 1145.62 1974.8C1026.18 1967.19 889.014 2014.77 760.707 2034.76Z" fill="#F0C678"/>
<path fill-rule="evenodd" clip-rule="evenodd" d="M429.071 890.056C529.902 890.056 612.138 809.184 612.138 710.027C612.138 610.875 529.902 530 429.071 530C328.239 530 246 610.875 246 710.027C246 809.184 328.239 890.056 429.071 890.056Z" fill="#FFD449"/>
<path fill-rule="evenodd" clip-rule="evenodd" d="M681.741 2030.23C549.406 2086.84 320.235 2123.87 0 2142.47V2031.58C227.247 2031.13 454.494 2030.68 681.741 2030.23Z" fill="#69A8E8"/>
<path fill-rule="evenodd" clip-rule="evenodd" d="M509.644 2008.71C484.413 1969.26 455.882 1933.49 406.56 1924.25C406.249 1926.24 405.935 1928.23 405.621 1930.22C449.896 1940.67 471.265 1973.42 485.868 2012.22C493.726 2014.21 501.587 2016.19 509.445 2018.18C509.511 2015.02 509.577 2011.87 509.644 2008.71Z" fill="#B8834E"/>
<path fill-rule="evenodd" clip-rule="evenodd" d="M409.674 1927L405.056 1924.13C398.529 1920.07 391.314 1918.55 384.113 1919.74L369.171 1922.19C362.711 1923.25 358.562 1927.5 358.489 1933.13L358.435 1937.46L409.674 1927Z" fill="#BCD339"/>
<path fill-rule="evenodd" clip-rule="evenodd" d="M409.674 1927L367.429 1979.96L362.834 1973.44C358.498 1967.29 358.768 1960.45 363.536 1955.67L387.118 1932C391.596 1927.51 398.123 1925.58 405.714 1926.51L409.674 1927Z" fill="#94AB13"/>
<path fill-rule="evenodd" clip-rule="evenodd" d="M409.673 1927L406.023 1922.47C401.867 1917.31 400.22 1911.95 401.067 1906.33L401.954 1900.43C402.128 1899.27 403.003 1898.44 404.342 1898.16C405.677 1897.88 407.099 1898.24 408.216 1899.13L412.329 1902.41L409.673 1927Z" fill="#859A0E"/>
<path fill-rule="evenodd" clip-rule="evenodd" d="M414.041 1905.9L432.112 1893.81C438.374 1889.62 446.997 1889.22 455.124 1892.76L458.085 1894.05L408.131 1926.81L407.425 1924.52C405.128 1917.06 407.551 1910.25 414.041 1905.9Z" fill="#94AB13"/>
<path fill-rule="evenodd" clip-rule="evenodd" d="M410.168 1962.5L410.119 1962.46C401.393 1954.89 396.945 1945.95 397.086 1936.28L397.198 1928.4C397.219 1926.88 398.067 1925.68 399.599 1925.01C401.131 1924.34 402.919 1924.39 404.652 1925.14L409.488 1927.26L410.168 1962.5Z" fill="#859A0E"/>
<path fill-rule="evenodd" clip-rule="evenodd" d="M491.133 2017.25C490.475 1954.87 496.237 1894.29 544.895 1848.68C546.71 1850.7 548.528 1852.71 550.344 1854.73C508.255 1898.08 508.321 1950.17 520.451 2004.22C513.076 2012.06 505.701 2019.91 498.326 2027.75C495.928 2024.25 493.53 2020.75 491.133 2017.25Z" fill="#B8834E"/>
<path fill-rule="evenodd" clip-rule="evenodd" d="M544.312 1853.07L549.478 1847.99C556.781 1840.8 565.744 1836.73 575.494 1836.18L595.728 1835.04C604.474 1834.55 611.161 1838.9 612.938 1846.22L614.305 1851.86L544.312 1853.07Z" fill="#94AB13"/>
<path fill-rule="evenodd" clip-rule="evenodd" d="M544.312 1852.73L615.287 1909.58L619.33 1899.73C623.147 1890.44 620.749 1881.6 613.097 1876.74L575.244 1852.71C568.054 1848.14 558.961 1847.53 549.336 1850.94L544.312 1852.73Z" fill="#859A0E"/>
<path fill-rule="evenodd" clip-rule="evenodd" d="M544.312 1852.73L547.72 1845.76C551.601 1837.82 552.145 1830.34 549.36 1823.26L546.436 1815.81C545.862 1814.35 544.469 1813.52 542.643 1813.55C540.814 1813.57 539.066 1814.45 537.876 1815.94L533.488 1821.42L544.312 1852.73Z" fill="#BCD339"/>
<path fill-rule="evenodd" clip-rule="evenodd" d="M532.3 1826.46L505.1 1815.93C495.675 1812.28 484.307 1814.27 474.758 1821.25L471.282 1823.79L546.272 1852.03L546.504 1848.84C547.271 1838.44 542.071 1830.25 532.3 1826.46Z" fill="#94AB13"/>
<path fill-rule="evenodd" clip-rule="evenodd" d="M554.294 1899.2L554.346 1899.13C563.463 1886.71 566.593 1873.77 563.52 1861.19L561.015 1850.94C560.53 1848.96 559.062 1847.64 556.861 1847.21C554.662 1846.78 552.347 1847.36 550.313 1848.85L544.631 1853.01L554.294 1899.2Z" fill="#BCD339"/>
<path fill-rule="evenodd" clip-rule="evenodd" d="M409.674 1927L405.056 1924.13C398.529 1920.07 391.314 1918.55 384.113 1919.74L369.171 1922.19C362.711 1923.25 358.562 1927.5 358.489 1933.13L358.435 1937.46L409.674 1927Z" fill="#BCD339"/>
<path fill-rule="evenodd" clip-rule="evenodd" d="M409.674 1927L367.429 1979.96L362.834 1973.44C358.498 1967.29 358.768 1960.45 363.536 1955.67L387.118 1932C391.596 1927.51 398.123 1925.58 405.714 1926.51L409.674 1927Z" fill="#94AB13"/>
<path fill-rule="evenodd" clip-rule="evenodd" d="M409.673 1927L406.023 1922.47C401.867 1917.31 400.22 1911.95 401.067 1906.33L401.954 1900.43C402.128 1899.27 403.003 1898.44 404.342 1898.16C405.677 1897.88 407.099 1898.24 408.216 1899.13L412.329 1902.41L409.673 1927Z" fill="#859A0E"/>
<path fill-rule="evenodd" clip-rule="evenodd" d="M414.041 1905.9L432.112 1893.81C438.374 1889.62 446.997 1889.22 455.124 1892.76L458.085 1894.05L408.131 1926.81L407.425 1924.52C405.128 1917.06 407.551 1910.25 414.041 1905.9Z" fill="#94AB13"/>
<path fill-rule="evenodd" clip-rule="evenodd" d="M410.168 1962.5L410.119 1962.46C401.393 1954.89 396.945 1945.95 397.086 1936.28L397.198 1928.4C397.219 1926.88 398.067 1925.68 399.599 1925.01C401.131 1924.34 402.919 1924.39 404.652 1925.14L409.488 1927.26L410.168 1962.5Z" fill="#859A0E"/>
<path fill-rule="evenodd" clip-rule="evenodd" d="M544.312 1853.07L549.478 1847.99C556.781 1840.8 565.744 1836.73 575.494 1836.18L595.728 1835.04C604.474 1834.55 611.161 1838.9 612.938 1846.22L614.305 1851.86L544.312 1853.07Z" fill="#94AB13"/>
<path fill-rule="evenodd" clip-rule="evenodd" d="M544.312 1852.73L615.287 1909.58L619.33 1899.73C623.147 1890.44 620.749 1881.6 613.097 1876.74L575.244 1852.71C568.054 1848.14 558.961 1847.53 549.336 1850.94L544.312 1852.73Z" fill="#859A0E"/>
<path fill-rule="evenodd" clip-rule="evenodd" d="M544.312 1852.73L547.72 1845.76C551.601 1837.82 552.145 1830.34 549.36 1823.26L546.436 1815.81C545.862 1814.35 544.469 1813.52 542.643 1813.55C540.814 1813.57 539.066 1814.45 537.876 1815.94L533.488 1821.42L544.312 1852.73Z" fill="#BCD339"/>
<path fill-rule="evenodd" clip-rule="evenodd" d="M532.3 1826.46L505.1 1815.93C495.675 1812.28 484.307 1814.27 474.758 1821.25L471.282 1823.79L546.272 1852.03L546.504 1848.84C547.271 1838.44 542.071 1830.25 532.3 1826.46Z" fill="#94AB13"/>
<path fill-rule="evenodd" clip-rule="evenodd" d="M554.294 1899.2L554.346 1899.13C563.463 1886.71 566.593 1873.77 563.52 1861.19L561.015 1850.94C560.53 1848.96 559.062 1847.64 556.861 1847.21C554.662 1846.78 552.347 1847.36 550.313 1848.85L544.631 1853.01L554.294 1899.2Z" fill="#BCD339"/>
<path d="M538.444 2028.88C518.256 2028.88 523.38 2028.88 504.797 2028.88C486.215 2028.88 491.339 2028.88 471.151 2028.88C471.151 2010.3 486.215 1995.24 504.797 1995.24C523.38 1995.24 538.444 2010.3 538.444 2028.88Z" fill="#A7BF1C"/>
<path fill-rule="evenodd" clip-rule="evenodd" d="M247.201 2008.71C221.97 1969.26 193.44 1933.49 144.117 1924.25C143.806 1926.24 143.492 1928.23 143.178 1930.22C187.453 1940.67 208.823 1973.42 223.425 2012.22C231.284 2014.21 239.145 2016.19 247.002 2018.18C247.068 2015.02 247.134 2011.87 247.201 2008.71Z" fill="#B8834E"/>
<path fill-rule="evenodd" clip-rule="evenodd" d="M147.231 1927L142.613 1924.13C136.087 1920.07 128.872 1918.55 121.67 1919.74L106.728 1922.19C100.268 1923.25 96.1193 1927.5 96.0461 1933.13L95.9926 1937.46L147.231 1927Z" fill="#BCD339"/>
<path fill-rule="evenodd" clip-rule="evenodd" d="M147.231 1927L104.987 1979.96L100.392 1973.44C96.0553 1967.29 96.3252 1960.45 101.093 1955.67L124.675 1932C129.153 1927.51 135.681 1925.58 143.272 1926.51L147.231 1927Z" fill="#94AB13"/>
<path fill-rule="evenodd" clip-rule="evenodd" d="M147.231 1927L143.58 1922.47C139.424 1917.31 137.777 1911.95 138.624 1906.33L139.511 1900.43C139.685 1899.27 140.561 1898.44 141.899 1898.16C143.234 1897.88 144.656 1898.24 145.773 1899.13L149.887 1902.41L147.231 1927Z" fill="#859A0E"/>
<path fill-rule="evenodd" clip-rule="evenodd" d="M151.599 1905.9L169.669 1893.81C175.931 1889.62 184.554 1889.22 192.682 1892.76L195.643 1894.05L145.688 1926.81L144.982 1924.52C142.686 1917.06 145.108 1910.25 151.599 1905.9Z" fill="#94AB13"/>
<path fill-rule="evenodd" clip-rule="evenodd" d="M147.725 1962.5L147.676 1962.46C138.95 1954.89 134.503 1945.95 134.643 1936.28L134.755 1928.4C134.776 1926.88 135.625 1925.68 137.157 1925.01C138.689 1924.34 140.476 1924.39 142.209 1925.14L147.045 1927.26L147.725 1962.5Z" fill="#859A0E"/>
<path fill-rule="evenodd" clip-rule="evenodd" d="M228.691 2017.25C228.032 1954.87 233.795 1894.29 282.452 1848.68C284.268 1850.7 286.085 1852.71 287.901 1854.73C245.812 1898.08 245.879 1950.17 258.008 2004.22C250.633 2012.06 243.259 2019.91 235.883 2027.75C233.486 2024.25 231.087 2020.75 228.691 2017.25Z" fill="#B8834E"/>
<path fill-rule="evenodd" clip-rule="evenodd" d="M281.87 1853.07L287.036 1847.99C294.338 1840.8 303.301 1836.73 313.051 1836.18L333.285 1835.04C342.031 1834.55 348.718 1838.9 350.495 1846.22L351.862 1851.86L281.87 1853.07Z" fill="#94AB13"/>
<path fill-rule="evenodd" clip-rule="evenodd" d="M281.869 1852.73L352.845 1909.58L356.887 1899.73C360.705 1890.44 358.306 1881.6 350.654 1876.74L312.801 1852.71C305.611 1848.14 296.519 1847.53 286.893 1850.94L281.869 1852.73Z" fill="#859A0E"/>
<path fill-rule="evenodd" clip-rule="evenodd" d="M281.87 1852.73L285.278 1845.76C289.159 1837.82 289.703 1830.34 286.917 1823.26L283.993 1815.81C283.419 1814.35 282.026 1813.52 280.201 1813.55C278.371 1813.57 276.623 1814.45 275.433 1815.94L271.046 1821.42L281.87 1852.73Z" fill="#BCD339"/>
<path fill-rule="evenodd" clip-rule="evenodd" d="M269.857 1826.46L242.657 1815.93C233.232 1812.28 221.864 1814.27 212.316 1821.25L208.839 1823.79L283.829 1852.03L284.062 1848.84C284.828 1838.44 279.628 1830.25 269.857 1826.46Z" fill="#94AB13"/>
<path fill-rule="evenodd" clip-rule="evenodd" d="M291.851 1899.2L291.904 1899.13C301.021 1886.71 304.151 1873.77 301.077 1861.19L298.573 1850.94C298.087 1848.96 296.619 1847.64 294.419 1847.21C292.219 1846.78 289.904 1847.36 287.87 1848.85L282.188 1853.01L291.851 1899.2Z" fill="#BCD339"/>
<path fill-rule="evenodd" clip-rule="evenodd" d="M147.231 1927L142.613 1924.13C136.087 1920.07 128.872 1918.55 121.67 1919.74L106.728 1922.19C100.268 1923.25 96.1193 1927.5 96.0461 1933.13L95.9926 1937.46L147.231 1927Z" fill="#BCD339"/>
<path fill-rule="evenodd" clip-rule="evenodd" d="M147.231 1927L104.987 1979.96L100.392 1973.44C96.0553 1967.29 96.3252 1960.45 101.093 1955.67L124.675 1932C129.153 1927.51 135.681 1925.58 143.272 1926.51L147.231 1927Z" fill="#94AB13"/>
<path fill-rule="evenodd" clip-rule="evenodd" d="M147.231 1927L143.58 1922.47C139.424 1917.31 137.777 1911.95 138.624 1906.33L139.511 1900.43C139.685 1899.27 140.561 1898.44 141.899 1898.16C143.234 1897.88 144.656 1898.24 145.773 1899.13L149.887 1902.41L147.231 1927Z" fill="#859A0E"/>
<path fill-rule="evenodd" clip-rule="evenodd" d="M151.599 1905.9L169.669 1893.81C175.931 1889.62 184.554 1889.22 192.682 1892.76L195.643 1894.05L145.688 1926.81L144.982 1924.52C142.686 1917.06 145.108 1910.25 151.599 1905.9Z" fill="#94AB13"/>
<path fill-rule="evenodd" clip-rule="evenodd" d="M147.725 1962.5L147.676 1962.46C138.95 1954.89 134.503 1945.95 134.643 1936.28L134.755 1928.4C134.776 1926.88 135.625 1925.68 137.157 1925.01C138.689 1924.34 140.476 1924.39 142.209 1925.14L147.045 1927.26L147.725 1962.5Z" fill="#859A0E"/>
<path fill-rule="evenodd" clip-rule="evenodd" d="M281.87 1853.07L287.036 1847.99C294.338 1840.8 303.301 1836.73 313.051 1836.18L333.285 1835.04C342.031 1834.55 348.718 1838.9 350.495 1846.22L351.862 1851.86L281.87 1853.07Z" fill="#94AB13"/>
<path fill-rule="evenodd" clip-rule="evenodd" d="M281.869 1852.73L352.845 1909.58L356.887 1899.73C360.705 1890.44 358.306 1881.6 350.654 1876.74L312.801 1852.71C305.611 1848.14 296.519 1847.53 286.893 1850.94L281.869 1852.73Z" fill="#859A0E"/>
<path fill-rule="evenodd" clip-rule="evenodd" d="M281.87 1852.73L285.278 1845.76C289.159 1837.82 289.703 1830.34 286.917 1823.26L283.993 1815.81C283.419 1814.35 282.026 1813.52 280.201 1813.55C278.371 1813.57 276.623 1814.45 275.433 1815.94L271.046 1821.42L281.87 1852.73Z" fill="#BCD339"/>
<path fill-rule="evenodd" clip-rule="evenodd" d="M269.857 1826.46L242.657 1815.93C233.232 1812.28 221.864 1814.27 212.316 1821.25L208.839 1823.79L283.829 1852.03L284.062 1848.84C284.828 1838.44 279.628 1830.25 269.857 1826.46Z" fill="#94AB13"/>
<path fill-rule="evenodd" clip-rule="evenodd" d="M291.851 1899.2L291.904 1899.13C301.021 1886.71 304.151 1873.77 301.077 1861.19L298.573 1850.94C298.087 1848.96 296.619 1847.64 294.419 1847.21C292.219 1846.78 289.904 1847.36 287.87 1848.85L282.188 1853.01L291.851 1899.2Z" fill="#BCD339"/>
<path d="M276.001 2028.88C255.813 2028.88 260.937 2028.88 242.355 2028.88C223.772 2028.88 228.896 2028.88 208.708 2028.88C208.708 2010.3 223.772 1995.24 242.355 1995.24C260.937 1995.24 276.001 2010.3 276.001 2028.88Z" fill="#A7BF1C"/>
</svg>
