<svg width="1819" height="2558" viewBox="0 0 1819 2558" fill="none" xmlns="http://www.w3.org/2000/svg">
<path d="M0.0478516 2411.31H1818.46V0.000102115H0.0478516V2411.31Z" fill="#A8D5E2"/>
<path d="M0.0478516 591.189H1818.46V2411.32H0.0478516V591.189Z" fill="#A8D5E2"/>
<path fill-rule="evenodd" clip-rule="evenodd" d="M1818.41 1530.29V2413.35H674.578V1652.95C895.277 1586.97 1098.43 1493.68 1289.14 1381.05C1355.78 1341.7 1385.1 1345.69 1453.73 1383.62C1567.96 1446.75 1689.6 1494.48 1818.41 1530.29Z" fill="#F7D38F"/>
<path fill-rule="evenodd" clip-rule="evenodd" d="M1818.41 2413.35H0V1618.7C219.584 1552.72 421.706 1459.43 611.457 1346.81C677.76 1307.45 775.045 1303.3 848.838 1336.67C1142.3 1469.39 1458.99 1579.66 1818.41 1648.67V2413.35Z" fill="#F0C678"/>
<path fill-rule="evenodd" clip-rule="evenodd" d="M0 2206.45V1613.72C224.522 1547.72 431.19 1454.41 625.208 1341.76C656.339 1323.68 694.157 1313.03 733.255 1310.04C666.851 1355.26 855.484 1340.87 819.48 1395.77C783.473 1450.67 542.34 1421.49 583.815 1537.91C625.292 1654.33 1025.79 1587.9 998.492 1760.02C981.828 1865.11 695.658 1997.49 624.829 2058.91C582.902 2095.26 560.327 2159.21 522.638 2190.9C348.424 2196.08 174.212 2201.26 0 2206.45Z" fill="#FFDB99"/>
<path fill-rule="evenodd" clip-rule="evenodd" d="M611.086 2063.8L923.01 1900.77C1008.18 1856.26 1095.65 1845.31 1189.13 1867.46C1285.58 1890.31 1377.86 1893.31 1479.81 1877.48L1818.41 1824.93V2413.35H0V2064.75L611.086 2063.8Z" fill="#FFDB99"/>
<path fill-rule="evenodd" clip-rule="evenodd" d="M1818.41 2405.74L1647.45 2347.24C1388.87 2258.75 1142.96 2252.82 880.427 2328.74L771.666 2360.19C512.166 2435.23 270.866 2434.91 11.5682 2359.17L0 2355.8V2557.84H1818.41V2405.74Z" fill="#F0C678"/>
<path fill-rule="evenodd" clip-rule="evenodd" d="M760.707 2034.76C888.272 2005.15 1023.97 1950.47 1143.4 1945.93C1262.83 1941.39 1353.57 2012.02 1461.56 2008.11C1583.9 2003.69 1670.54 1939.27 1818.41 1974.8V2054.74C1689.08 2020.69 1573.39 2083.77 1457.12 2079.17C1340.85 2074.56 1265.07 1982.42 1145.62 1974.8C1026.18 1967.19 889.014 2014.77 760.707 2034.76Z" fill="#F0C678"/>
<path fill-rule="evenodd" clip-rule="evenodd" d="M429.071 890.056C529.902 890.056 612.138 809.184 612.138 710.027C612.138 610.875 529.902 530 429.071 530C328.239 530 246 610.875 246 710.027C246 809.184 328.239 890.056 429.071 890.056Z" fill="#FFD449"/>
<path fill-rule="evenodd" clip-rule="evenodd" d="M681.741 2030.23C549.406 2086.84 320.235 2123.87 0 2142.47V2031.58C227.247 2031.13 454.494 2030.68 681.741 2030.23Z" fill="#69A8E8"/>
</svg>
