<svg width="79" height="64" viewBox="0 0 79 64" fill="none" xmlns="http://www.w3.org/2000/svg">
<path fill-rule="evenodd" clip-rule="evenodd" d="M44.9404 58.0043C37.4415 46.279 28.9621 35.6486 14.3031 32.9019C14.2107 33.493 14.1173 34.0845 14.0239 34.6759C27.1827 37.7828 33.534 47.5159 37.8738 59.0476C40.2096 59.6384 42.5459 60.2284 44.8813 60.8186C44.9009 59.8806 44.9205 58.942 44.9404 58.0043Z" fill="#B8834E"/>
<path fill-rule="evenodd" clip-rule="evenodd" d="M15.2285 33.7181L13.8561 32.8652C11.9163 31.6591 9.77191 31.2094 7.63154 31.5608L3.19065 32.2903C1.27075 32.6055 0.0376638 33.8689 0.0159232 35.5414L0 36.8286L15.2285 33.7181Z" fill="#BCD339"/>
<path fill-rule="evenodd" clip-rule="evenodd" d="M15.2284 33.7181L2.67313 49.4599L1.30745 47.5218C0.0186381 45.6934 0.0988637 43.6618 1.51598 42.2394L8.5247 35.2066C9.85546 33.8705 11.7956 33.2974 14.0517 33.5737L15.2284 33.7181Z" fill="#94AB13"/>
<path fill-rule="evenodd" clip-rule="evenodd" d="M15.2284 33.7181L14.1435 32.3727C12.9083 30.8405 12.4186 29.245 12.6703 27.5756L12.934 25.8212C12.9857 25.477 13.246 25.2306 13.6438 25.148C14.0406 25.065 14.4632 25.1709 14.7951 25.4354L16.0178 26.412L15.2284 33.7181Z" fill="#859A0E"/>
<path fill-rule="evenodd" clip-rule="evenodd" d="M16.5265 27.4483L21.8974 23.8544C23.7585 22.6088 26.3211 22.4923 28.7367 23.544L29.6168 23.9277L14.7698 33.6614L14.5601 32.9822C13.8776 30.7651 14.5974 28.7398 16.5265 27.4483Z" fill="#94AB13"/>
<path fill-rule="evenodd" clip-rule="evenodd" d="M15.3753 44.2712L15.3606 44.2582C12.7674 42.0073 11.4455 39.3523 11.4872 36.478L11.5205 34.1363C11.5267 33.6836 11.779 33.3265 12.2343 33.1274C12.6896 32.9284 13.2209 32.9425 13.7359 33.1678L15.1733 33.7967L15.3753 44.2712Z" fill="#859A0E"/>
<path fill-rule="evenodd" clip-rule="evenodd" d="M39.4389 60.5412C39.2433 42.0029 40.9559 23.9967 55.4173 10.4431C55.9568 11.0421 56.497 11.6405 57.0368 12.2394C44.5275 25.1256 44.5474 40.6043 48.1523 56.6697C45.9605 59.0008 43.7687 61.3317 41.5766 63.6631C40.864 62.6222 40.1512 61.5817 39.4389 60.5412Z" fill="#B8834E"/>
<path fill-rule="evenodd" clip-rule="evenodd" d="M55.2441 11.7482L56.7795 10.236C58.9498 8.09939 61.6138 6.89055 64.5114 6.72738L70.5253 6.38958C73.1247 6.24391 75.1119 7.53448 75.6401 9.71058L76.0465 11.386L55.2441 11.7482Z" fill="#94AB13"/>
<path fill-rule="evenodd" clip-rule="evenodd" d="M55.244 11.6443L76.3385 28.5406L77.54 25.6145C78.6745 22.8548 77.9616 20.2272 75.6875 18.7828L64.4372 11.6404C62.3002 10.2829 59.5979 10.0992 56.7371 11.1144L55.244 11.6443Z" fill="#859A0E"/>
<path fill-rule="evenodd" clip-rule="evenodd" d="M55.2441 11.6443L56.257 9.57315C57.4105 7.2155 57.5722 4.99205 56.7442 2.88563L55.8752 0.673647C55.7046 0.239333 55.2906 -0.0076828 54.748 0.000159264C54.2042 0.00830269 53.6849 0.268288 53.3312 0.710443L52.0271 2.33942L55.2441 11.6443Z" fill="#BCD339"/>
<path fill-rule="evenodd" clip-rule="evenodd" d="M51.674 3.83936L43.5899 0.708984C40.7887 -0.375593 37.41 0.21646 34.5721 2.29001L33.539 3.04523L55.8264 11.4371L55.8956 10.4901C56.1234 7.39832 54.578 4.96405 51.674 3.83936Z" fill="#94AB13"/>
<path fill-rule="evenodd" clip-rule="evenodd" d="M58.2107 25.4569L58.2263 25.4361C60.9359 21.7456 61.8662 17.898 60.9528 14.1587L60.2084 11.1137C60.0642 10.5244 59.6278 10.132 58.9738 10.0044C58.32 9.87621 57.632 10.0487 57.0275 10.4921L55.3388 11.7296L58.2107 25.4569Z" fill="#BCD339"/>
<path fill-rule="evenodd" clip-rule="evenodd" d="M15.2285 33.7181L13.8561 32.8652C11.9163 31.6591 9.77191 31.2094 7.63154 31.5608L3.19065 32.2903C1.27075 32.6055 0.0376638 33.8689 0.0159232 35.5414L0 36.8286L15.2285 33.7181Z" fill="#BCD339"/>
<path fill-rule="evenodd" clip-rule="evenodd" d="M15.2284 33.7181L2.67313 49.4599L1.30745 47.5218C0.0186381 45.6934 0.0988637 43.6618 1.51598 42.2394L8.5247 35.2066C9.85546 33.8705 11.7956 33.2974 14.0517 33.5737L15.2284 33.7181Z" fill="#94AB13"/>
<path fill-rule="evenodd" clip-rule="evenodd" d="M15.2284 33.7181L14.1435 32.3727C12.9083 30.8405 12.4186 29.245 12.6703 27.5756L12.934 25.8212C12.9857 25.477 13.246 25.2306 13.6438 25.148C14.0406 25.065 14.4632 25.1709 14.7951 25.4354L16.0178 26.412L15.2284 33.7181Z" fill="#859A0E"/>
<path fill-rule="evenodd" clip-rule="evenodd" d="M16.5265 27.4483L21.8974 23.8544C23.7585 22.6088 26.3211 22.4923 28.7367 23.544L29.6168 23.9277L14.7698 33.6614L14.5601 32.9822C13.8776 30.7651 14.5974 28.7398 16.5265 27.4483Z" fill="#94AB13"/>
<path fill-rule="evenodd" clip-rule="evenodd" d="M15.3753 44.2712L15.3606 44.2582C12.7674 42.0073 11.4455 39.3523 11.4872 36.478L11.5205 34.1363C11.5267 33.6836 11.779 33.3265 12.2343 33.1274C12.6896 32.9284 13.2209 32.9425 13.7359 33.1678L15.1733 33.7967L15.3753 44.2712Z" fill="#859A0E"/>
<path fill-rule="evenodd" clip-rule="evenodd" d="M55.2441 11.7483L56.7795 10.236C58.9498 8.09945 61.6138 6.89061 64.5114 6.72745L70.5253 6.38965C73.1247 6.24397 75.1119 7.53454 75.6401 9.71064L76.0465 11.3861L55.2441 11.7483Z" fill="#94AB13"/>
<path fill-rule="evenodd" clip-rule="evenodd" d="M55.244 11.6443L76.3385 28.5406L77.54 25.6145C78.6745 22.8548 77.9616 20.2272 75.6875 18.7828L64.4372 11.6404C62.3002 10.2829 59.5979 10.0992 56.7371 11.1144L55.244 11.6443Z" fill="#859A0E"/>
<path fill-rule="evenodd" clip-rule="evenodd" d="M55.2441 11.6443L56.257 9.57315C57.4105 7.2155 57.5722 4.99205 56.7442 2.88563L55.8752 0.673647C55.7046 0.239333 55.2906 -0.0076828 54.748 0.000159264C54.2042 0.00830269 53.6849 0.268288 53.3312 0.710443L52.0271 2.33942L55.2441 11.6443Z" fill="#BCD339"/>
<path fill-rule="evenodd" clip-rule="evenodd" d="M51.674 3.83936L43.5899 0.708984C40.7887 -0.375593 37.41 0.21646 34.5721 2.29001L33.539 3.04523L55.8264 11.4371L55.8956 10.4901C56.1234 7.39832 54.578 4.96405 51.674 3.83936Z" fill="#94AB13"/>
<path fill-rule="evenodd" clip-rule="evenodd" d="M58.2107 25.4569L58.2263 25.4361C60.9359 21.7456 61.8662 17.898 60.9528 14.1587L60.2084 11.1137C60.0642 10.5244 59.6278 10.132 58.9738 10.0044C58.32 9.87621 57.632 10.0487 57.0275 10.4921L55.3388 11.7296L58.2107 25.4569Z" fill="#BCD339"/>
<path d="M53.5 64C47.5 64 49.0228 64 43.5 64C37.9772 64 39.5 64 33.5 64C33.5 58.4772 37.9772 54 43.5 54C49.0228 54 53.5 58.4772 53.5 64Z" fill="#A7BF1C"/>
</svg>
